<svg id="svg2" xmlns="http://www.w3.org/2000/svg" version="1.1" y="0" x="0" viewBox="0 0 512 512">
 <path id="path5" d="m512 256.38c0.51-91.67-48.09-176.59-127.39-222.57-79.31-45.982-177.15-45.982-256.45-0.001-79.305 45.98-127.91 130.9-127.4 222.57 0.7869 140.61 115 254.19 255.62 254.19s254.83-113.58 255.62-254.19" fill="#606060"/>
 <path id="path7" d="m48 256c0 114.69 93.31 208 208 208s208-93.31 208-208-93.31-208-208-208-208 93.31-208 208z" fill="#fff"/>
 <path id="path4165" d="m382.24 112.39-205.23 36.655v126.55c-4.777-1.2781-9.7052-1.9212-14.655-1.9542-32.381 0-58.633 26.252-58.633 58.633 0 32.4 26.252 58.649 58.633 58.649 29.525-0.0275 54.436-22.016 58.119-51.316 0 0 0.51398-5.335 0.51398-7.3332v-147.1l117.28-20.936v74.706c-4.788-1.2671-9.7162-1.9213-14.655-1.9542-32.392 0-58.644 26.263-58.644 58.644s26.252 58.627 58.644 58.627c29.525-0.0275 54.427-22.005 58.11-51.305l0.52223-7.3222z" fill="#004389"/>
</svg>
