<?xml version="1.0" encoding="UTF-8" standalone="no"?>
<svg xmlns="http://www.w3.org/2000/svg" version="1.1" viewBox="0 0 512 512" y="0" x="0">
 <g id="surface1">
  <path fill="#606060" d="m512 256.38c0.51-91.67-48.09-176.59-127.39-222.57-79.31-45.982-177.15-45.982-256.45-0.001-79.305 45.98-127.91 130.9-127.4 222.57 0.7869 140.61 115 254.19 255.62 254.19s254.83-113.58 255.62-254.19"/>
  <path fill="#fff" d="m48 256c0 114.69 93.31 208 208 208s208-93.31 208-208-93.31-208-208-208-208 93.31-208 208z"/>
  <path fill="#004389" d="m159.5 112.45v278.57h27.86c4.88 0.03 9.69-1.09 13.93-3.49l195-111.42c8.66-4.79 13.05-14.59 13.05-24.38s-4.39-19.59-13.05-24.37l-195-111.43c-4.24-2.51-9.05-3.62-13.93-3.62h-2.61z"/>
 </g>
</svg>
