<?xml version="1.0" encoding="UTF-8" standalone="no"?>
<svg xmlns="http://www.w3.org/2000/svg" height="128pt" width="128pt" version="1.1" xmlns:xlink="http://www.w3.org/1999/xlink" viewBox="0 0 128 128">
 <defs>
  <filter id="alpha" height="100%" width="100%" y="0%" x="0%" filterUnits="objectBoundingBox">
   <feColorMatrix values="0 0 0 0 1 0 0 0 0 1 0 0 0 0 1 0 0 0 1 0" type="matrix" in="SourceGraphic"/>
  </filter>
  <mask id="mask0">
   <g filter="url(#alpha)">
    <rect fill-opacity=".30196" height="128" width="128" y="0" x="0"/>
   </g>
  </mask>
  <clipPath id="clip1">
   <rect width="128" height="128"/>
  </clipPath>
  <g id="surface108" clip-path="url(#clip1)">
   <path d="m96 29.527l-42.668 7.618v2.667l42.668-7.621zm16 47.809l-0.19 2.664c-1.34 10.66-10.4 18.656-21.142 18.668-11.336 0-20.574-8.844-21.27-20-0.023 0.441-0.066 0.883-0.066 1.332 0 11.781 9.551 21.34 21.336 21.34 10.742-0.02 19.802-8.012 21.142-18.672l0.19-2.668zm-58.668 13.332c0 0.727-0.187 2.668-0.187 2.668-1.344 10.654-10.403 18.654-21.145 18.664-11.332 0-20.574-8.84-21.266-20-0.027 0.445-0.07 0.883-0.07 1.336 0 11.784 9.555 21.334 21.336 21.334 10.742-0.01 19.801-8.01 21.145-18.67 0 0 0.187-1.938 0.187-2.664z" fill-opacity="0.2"/>
  </g>
 </defs>
 <g id="surface1">
  <path fill="#bbb" d="m112 13.332l-74.668 13.336v46.043c-1.738-0.465-3.531-0.699-5.332-0.711-11.781 0-21.332 9.551-21.332 21.332 0 11.788 9.551 21.338 21.332 21.338 10.742-0.01 19.805-8.01 21.145-18.67 0 0 0.187-1.941 0.187-2.668v-53.52l42.668-7.617v27.18c-1.742-0.461-3.535-0.699-5.332-0.711-11.785 0-21.336 9.555-21.336 21.336s9.551 21.33 21.336 21.33c10.742-0.01 19.802-8.006 21.142-18.666l0.19-2.664z" fill-opacity="0.8"/>
  <use xlink:href="#surface108" mask="url(#mask0)"/>
  <path fill="#fff" d="m112 13.332l-74.668 13.336v2.664l74.668-13.332zm-21.332 45.336c-11.785 0-21.336 9.551-21.336 21.332 0 0.449 0.043 0.891 0.07 1.332 0.692-11.156 9.934-20 21.266-20 1.801 0.012 3.594 0.25 5.332 0.711v-2.668c-1.742-0.461-3.531-0.699-5.332-0.711zm-58.668 13.332c-11.781 0-21.332 9.551-21.332 21.332 0 0.453 0.039 0.891 0.066 1.336 0.692-11.16 9.934-20 21.266-20 1.801 0.008 3.594 0.246 5.332 0.707v-2.668c-1.738-0.461-3.531-0.699-5.332-0.707z" fill-opacity=".2"/>
 </g>
</svg>
