<?xml version="1.0" encoding="UTF-8" standalone="no"?>
<svg id="Layer_1" xmlns="http://www.w3.org/2000/svg" height="512px" viewBox="0 0 512 512" width="512px" version="1.1"><g id="g3" transform="matrix(1.2163 0 0 1.2163 -52.893 -55.252)"><circle id="circle5" fill="#000" cy="256" cx="256" r="64"/><g id="g7"><path id="path9" fill="#000" d="m160 256c0-34.8 18.6-65.3 46.3-82.2l-23.1-23.1c-6.3 4.3-12.2 9.3-17.7 14.8-24.2 24.2-37.5 56.3-37.5 90.5s13.3 66.3 37.5 90.5c5.5 5.5 11.4 10.4 17.7 14.8l23.1-23.1c-27.7-16.9-46.3-47.4-46.3-82.2z"/><path id="path11" fill="#000" d="m352 256c0 34.8-18.6 65.3-46.3 82.2l23.1 23.1c6.3-4.3 12.2-9.3 17.7-14.8 24.2-24.2 37.5-56.3 37.5-90.5s-13.3-66.3-37.5-90.5c-5.5-5.5-11.4-10.4-17.7-14.8l-23.1 23.1c27.7 16.9 46.3 47.4 46.3 82.2z"/><path id="path13" fill="#000" d="m96 256c0-52.5 25.3-99 64.3-128.2l-22.9-22.8c-6 4.7-11.7 9.8-17.2 15.3-17.6 17.6-31.5 38.2-41.1 61-10 23.6-15.1 48.8-15.1 74.7s5.1 51.1 15.1 74.7c9.7 22.9 23.5 43.4 41.1 61 5.5 5.5 11.2 10.6 17.2 15.3l22.8-22.8c-38.9-29.2-64.2-75.7-64.2-128.2z"/><path id="path15" fill="#000" d="m416 256c0 52.5-25.3 99-64.3 128.2l22.8 22.8c6-4.7 11.7-9.8 17.2-15.3 17.6-17.6 31.5-38.2 41.1-61 10-23.7 15.1-48.8 15.1-74.7s-5.1-51.1-15.1-74.7c-9.7-22.9-23.5-43.4-41.1-61-5.5-5.5-11.2-10.6-17.2-15.3l-22.8 22.8c39 29.2 64.3 75.7 64.3 128.2z"/></g></g></svg>
